<svg width="85" height="85" viewBox="0 0 85 85" fill="none" xmlns="http://www.w3.org/2000/svg">
<path d="M66.7029 42.8051C66.7029 44.0353 66.608 45.2451 66.4351 46.4244C66.4284 46.4482 66.4182 46.4719 66.4114 46.4956L66.425 46.5091C64.8153 57.0857 56.4347 65.4663 45.8615 67.0726L45.8479 67.0591C45.8242 67.0659 45.8039 67.076 45.7768 67.0828C44.5941 67.259 43.3842 67.3505 42.1541 67.3505V84.7251L50.084 70.9969C59.871 68.2384 67.5941 60.5186 70.3493 50.7316L84.0775 42.8018H66.7029M42.1541 0.881775L34.2242 14.61C24.4372 17.3685 16.7174 25.0883 13.9589 34.8753L0.227325 42.8085H17.6019C17.6019 41.5784 17.6968 40.3686 17.8696 39.1893C17.8764 39.1655 17.8866 39.1452 17.8934 39.1181L17.8798 39.1045C19.6725 27.3181 29.8729 18.2598 42.1507 18.2598V0.881775M30.5066 75.6701C26.6095 81.0347 20.7908 76.3987 24.6372 71.7899L27.0331 68.9196C29.5171 65.9442 42.6556 51.5856 46.6002 46.0788C50.1382 42.0867 54.381 40.5278 58.2714 40.5312C56.0314 39.4265 53.1644 39.3587 49.6604 40.3245C51.0261 31.7812 50.5923 33.5739 56.5228 27.4944L66.0353 17.7413C67.0519 16.7009 68.1736 17.4092 67.0417 18.7478L58.1393 29.2735C56.1568 31.6152 58.7967 33.4655 60.464 31.5169L69.763 20.6421C70.6407 19.6153 71.6641 20.4625 70.7796 21.574L61.7382 32.9436C59.976 35.1599 62.2804 37.1966 64.2019 34.8312L73.2908 23.6446C74.2227 22.4958 75.0428 23.2007 74.2193 24.4512L64.1951 39.6027C59.8337 46.194 57.2277 43.0898 52.0021 47.8477C48.7284 50.8265 37.8977 65.019 33.4244 71.512L32.1739 73.3251C31.5504 74.2197 30.9912 75.0161 30.51 75.6735L30.5066 75.6701ZM24.3694 65.4019C18.8931 70.0142 13.0914 69.8549 10.7497 66.1577C9.97364 64.4971 9.33992 62.8976 9.91942 59.6816C10.0482 59.0174 10.2312 58.3193 10.4718 57.5873C12.5051 51.4331 18.4017 45.7094 25.1997 44.8893H25.2167C22.9156 48.3018 22.4378 49.6065 22.8614 53.1953C23.2986 56.9095 22.0921 60.7016 19.232 64.5717C28.7987 56.6384 23.0546 50.752 27.1856 45.3739C31.198 40.1517 39.0669 30.4833 43.1504 25.0544L52.9882 11.9735C56.3059 7.56457 62.7786 11.0381 57.9325 16.3925L56.2584 18.2428L47.0916 28.3721C42.293 33.6756 31.8215 44.2522 31.4623 51.6432C31.2115 56.7841 28.5106 61.9114 24.3694 65.3986V65.4019Z" fill="#39542F"/>
</svg>
